{
  "accessors": [
    {
      "bufferView": 2,
      "componentType": 5126,
      "count": 2143,
      "max": [
        10,
        10,
        10
      ],
      "min": [
        -10,
        -10,
        -10
      ],
      "type": "VEC3"
    },
    {
      "bufferView": 2,
      "byteOffset": 25716,
      "componentType": 5126,
      "count": 2143,
      "max": [
        1,
        1,
        1
      ],
      "min": [
        -1,
        -1,
        -1
      ],
      "type": "VEC3"
    },
    {
      "bufferView": 3,
      "componentType": 5126,
      "count": 2143,
      "max": [
        1,
        1,
        0.024549407884478569,
        1
      ],
      "min": [
        -1,
        -1,
        -0.024549404159188271,
        1
      ],
      "type": "VEC4"
    },
    {
      "bufferView": 1,
      "componentType": 5126,
      "count": 2143,
      "max": [
        0.99999940395355225,
        1
      ],
      "min": [
        0,
        -2.384185791015625e-07
      ],
      "type": "VEC2"
    },
    {
      "bufferView": 0,
      "componentType": 5125,
      "count": 11904,
      "max": [
        2142
      ],
      "min": [
        0
      ],
      "type": "SCALAR"
    },
    {
      "bufferView": 2,
      "byteOffset": 51432,
      "componentType": 5126,
      "count": 2143,
      "max": [
        10,
        10,
        10
      ],
      "min": [
        -10,
        -10,
        -10
      ],
      "type": "VEC3"
    },
    {
      "bufferView": 2,
      "byteOffset": 77148,
      "componentType": 5126,
      "count": 2143,
      "max": [
        1,
        1,
        1
      ],
      "min": [
        -1,
        -1,
        -1
      ],
      "type": "VEC3"
    },
    {
      "bufferView": 3,
      "byteOffset": 34288,
      "componentType": 5126,
      "count": 2143,
      "max": [
        1,
        1,
        0.024549407884478569,
        1
      ],
      "min": [
        -1,
        -1,
        -0.024549404159188271,
        1
      ],
      "type": "VEC4"
    },
    {
      "bufferView": 1,
      "byteOffset": 17144,
      "componentType": 5126,
      "count": 2143,
      "max": [
        0.99999940395355225,
        1
      ],
      "min": [
        0,
        -2.384185791015625e-07
      ],
      "type": "VEC2"
    },
    {
      "bufferView": 0,
      "byteOffset": 47616,
      "componentType": 5125,
      "count": 11904,
      "max": [
        2142
      ],
      "min": [
        0
      ],
      "type": "SCALAR"
    },
    {
      "bufferView": 4,
      "componentType": 5126,
      "count": 194,
      "max": [
        3.3333332538604736
      ],
      "min": [
        0
      ],
      "type": "SCALAR"
    },
    {
      "bufferView": 5,
      "componentType": 5126,
      "count": 194,
      "max": [
        0.48404785990715027,
        0.70710676908493042,
        0.70710676908493042,
        0.70710676908493042
      ],
      "min": [
        -0.70710676908493042,
        -0.5,
        -0.5,
        -0.48404785990715027
      ],
      "type": "VEC4"
    },
    {
      "bufferView": 4,
      "byteOffset": 776,
      "componentType": 5126,
      "count": 194,
      "max": [
        3.3333332538604736
      ],
      "min": [
        0
      ],
      "type": "SCALAR"
    },
    {
      "bufferView": 5,
      "byteOffset": 3104,
      "componentType": 5126,
      "count": 194,
      "max": [
        0.48404800891876221,
        0.70710676908493042,
        0.70710676908493042,
        0.70710676908493042
      ],
      "min": [
        -0.70710676908493042,
        -0.48404800891876221,
        -0.48404800891876221,
        -0.48404800891876221
      ],
      "type": "VEC4"
    }
  ],
  "animations": [
    {
      "channels": [
        {
          "sampler": 0,
          "target": {
            "node": 5,
            "path": "rotation"
          }
        },
        {
          "sampler": 1,
          "target": {
            "node": 7,
            "path": "rotation"
          }
        }
      ],
      "name": "Take 001",
      "samplers": [
        {
          "input": 10,
          "interpolation": "LINEAR",
          "output": 11
        },
        {
          "input": 12,
          "interpolation": "LINEAR",
          "output": 13
        }
      ]
    }
  ],
  "asset": {
    "extras": {
      "author": "SebastianSosnowski (https://sketchfab.com/SebastianSosnowski)",
      "license": "CC-BY-4.0 (http://creativecommons.org/licenses/by/4.0/)",
      "source": "https://sketchfab.com/models/fe05e06a265d4a8f9285d34c933878ee",
      "title": "Neptune"
    },
    "generator": "Sketchfab-3.32.3",
    "version": "2.0"
  },
  "bufferViews": [
    {
      "buffer": 0,
      "byteLength": 95232,
      "byteOffset": 0,
      "name": "floatBufferViews",
      "target": 34963
    },
    {
      "buffer": 0,
      "byteLength": 34288,
      "byteOffset": 95232,
      "byteStride": 8,
      "name": "floatBufferViews",
      "target": 34962
    },
    {
      "buffer": 0,
      "byteLength": 102864,
      "byteOffset": 129520,
      "byteStride": 12,
      "name": "floatBufferViews",
      "target": 34962
    },
    {
      "buffer": 0,
      "byteLength": 68576,
      "byteOffset": 232384,
      "byteStride": 16,
      "name": "floatBufferViews",
      "target": 34962
    },
    {
      "buffer": 0,
      "byteLength": 1552,
      "byteOffset": 300960,
      "name": "floatBufferViews"
    },
    {
      "buffer": 0,
      "byteLength": 6208,
      "byteOffset": 302512,
      "byteStride": 16,
      "name": "floatBufferViews"
    }
  ],
  "buffers": [
    {
      "byteLength": 308720,
      "uri": "scene.bin"
    }
  ],
  "images": [
    {
      "uri": "textures/Atmosfera_normal.png"
    },
    {
      "uri": "textures/Atmosfera_baseColor.png"
    },
    {
      "uri": "textures/Atmosfera_metallicRoughness.png"
    },
    {
      "uri": "textures/Planeta_metallicRoughness.png"
    },
    {
      "uri": "textures/Planeta_baseColor.jpeg"
    }
  ],
  "materials": [
    {
      "doubleSided": false,
      "name": "Planeta",
      "pbrMetallicRoughness": {
        "baseColorFactor": [
          0.71512957320000003,
          0.71512957320000003,
          0.71512957320000003,
          1
        ],
        "baseColorTexture": {
          "index": 4,
          "texCoord": 0
        },
        "metallicFactor": 0,
        "metallicRoughnessTexture": {
          "index": 3,
          "texCoord": 0
        },
        "roughnessFactor": 0.87366615849999996
      }
    },
    {
      "alphaMode": "BLEND",
      "doubleSided": false,
      "emissiveFactor": [
        0.0013906462169023253,
        0.00082500561935337313,
        0.11647437290947464
      ],
      "name": "Atmosfera",
      "normalTexture": {
        "index": 0,
        "scale": 0.074885670700000004,
        "texCoord": 0
      },
      "pbrMetallicRoughness": {
        "baseColorFactor": [
          0.38586128050000001,
          0.38586128050000001,
          0.38586128050000001,
          0.2395198171
        ],
        "baseColorTexture": {
          "index": 1,
          "texCoord": 0
        },
        "metallicFactor": 0,
        "metallicRoughnessTexture": {
          "index": 2,
          "texCoord": 0
        },
        "roughnessFactor": 1
      }
    }
  ],
  "meshes": [
    {
      "name": "Planeta_Planeta_0",
      "primitives": [
        {
          "attributes": {
            "NORMAL": 1,
            "POSITION": 0,
            "TANGENT": 2,
            "TEXCOORD_0": 3
          },
          "indices": 4,
          "material": 0,
          "mode": 4
        }
      ]
    },
    {
      "name": "Atmosfera_Atmosfera_0",
      "primitives": [
        {
          "attributes": {
            "NORMAL": 6,
            "POSITION": 5,
            "TANGENT": 7,
            "TEXCOORD_0": 8
          },
          "indices": 9,
          "material": 1,
          "mode": 4
        }
      ]
    }
  ],
  "nodes": [
    {
      "children": [
        1
      ],
      "name": "RootNode (gltf orientation matrix)",
      "rotation": [
        -0.70710678118654746,
        -0,
        -0,
        0.70710678118654757
      ]
    },
    {
      "children": [
        2
      ],
      "name": "RootNode (model correction matrix)"
    },
    {
      "children": [
        3
      ],
      "matrix": [
        1,
        0,
        0,
        0,
        0,
        0,
        1,
        0,
        0,
        -1,
        0,
        0,
        0,
        0,
        0,
        1
      ],
      "name": "943e82ae1e91464bb6057ce325b1063b.fbx"
    },
    {
      "children": [
        4
      ],
      "name": ""
    },
    {
      "children": [
        5,
        7
      ],
      "name": "RootNode"
    },
    {
      "children": [
        6
      ],
      "name": "Planeta",
      "rotation": [
        -0.7071068286895752,
        -0,
        0,
        0.7071068286895752
      ]
    },
    {
      "mesh": 0,
      "name": "Planeta_Planeta_0"
    },
    {
      "children": [
        8
      ],
      "name": "Atmosfera",
      "rotation": [
        -0.7071068286895752,
        -0,
        0,
        0.7071068286895752
      ],
      "scale": [
        1.0049999952316284,
        1.0049999952316284,
        1.0049999952316284
      ]
    },
    {
      "mesh": 1,
      "name": "Atmosfera_Atmosfera_0"
    }
  ],
  "samplers": [
    {
      "magFilter": 9729,
      "minFilter": 9987,
      "wrapS": 10497,
      "wrapT": 10497
    }
  ],
  "scene": 0,
  "scenes": [
    {
      "name": "OSG_Scene",
      "nodes": [
        0
      ]
    }
  ],
  "textures": [
    {
      "sampler": 0,
      "source": 0
    },
    {
      "sampler": 0,
      "source": 1
    },
    {
      "sampler": 0,
      "source": 2
    },
    {
      "sampler": 0,
      "source": 3
    },
    {
      "sampler": 0,
      "source": 4
    }
  ]
}

